<svg width="300" height="300" viewBox="0 0 300 300" fill="none" xmlns="http://www.w3.org/2000/svg">
  <g opacity="0.12">
    <path d="M220 280C180 200 200 120 260 60C240 140 260 220 220 280Z" fill="#F6D5C9"/>
    <path d="M180 260C150 210 160 150 210 100C190 160 210 220 180 260Z" fill="#F2C7B8"/>
    <path d="M140 240C120 200 130 160 170 120C155 165 165 210 140 240Z" fill="#EAB5A3"/>
    <path d="M220 280C200 220 210 140 250 80" stroke="#E8A892" stroke-width="2" stroke-linecap="round"/>
    <path d="M180 260C165 210 175 160 205 120" stroke="#E8A892" stroke-width="2" stroke-linecap="round"/>
    <path d="M140 240C130 200 140 170 165 135" stroke="#E8A892" stroke-width="2" stroke-linecap="round"/>
  </g>
</svg>
